<?xml version="1.0" encoding="UTF-8" standalone="no"?>
<!-- Created with Inkscape (http://www.inkscape.org/) -->

<svg
   width="66.998367mm"
   height="66.982033mm"
   viewBox="0 0 66.998367 66.982033"
   version="1.1"
   id="svg1"
   xml:space="preserve"
   inkscape:version="1.3 (0e150ed6c4, 2023-07-21)"
   sodipodi:docname="Logo_OCS.svg"
   xmlns:inkscape="http://www.inkscape.org/namespaces/inkscape"
   xmlns:sodipodi="http://sodipodi.sourceforge.net/DTD/sodipodi-0.dtd"
   xmlns="http://www.w3.org/2000/svg"
   xmlns:svg="http://www.w3.org/2000/svg"><sodipodi:namedview
     id="namedview1"
     pagecolor="#ffffff"
     bordercolor="#cccccc"
     borderopacity="1"
     inkscape:showpageshadow="0"
     inkscape:pageopacity="1"
     inkscape:pagecheckerboard="0"
     inkscape:deskcolor="#d1d1d1"
     inkscape:document-units="mm"
     inkscape:zoom="0.80561149"
     inkscape:cx="-21.101983"
     inkscape:cy="700.70996"
     inkscape:window-width="1920"
     inkscape:window-height="991"
     inkscape:window-x="-9"
     inkscape:window-y="-9"
     inkscape:window-maximized="1"
     inkscape:current-layer="layer1" /><defs
     id="defs1" /><g
     inkscape:label="Layer 1"
     inkscape:groupmode="layer"
     id="layer1"
     transform="translate(-87.966807,-111.61065)"><g
       id="g2"
       transform="translate(17.301275,-3.3673622)"
       inkscape:export-filename="Logo_OCS.svg"
       inkscape:export-xdpi="96"
       inkscape:export-ydpi="96"><path
         style="fill:#000000"
         d="M 101.98317,181.90217 C 93.751818,181.32273 86.182456,177.86531 80.393166,172.0406 72.603658,164.20343 69.188525,153.027 71.259621,142.15 c 1.772707,-9.30992 7.452697,-17.44233 15.652878,-22.41125 4.079655,-2.47207 8.698853,-4.03357 13.631331,-4.60799 1.56181,-0.18188 5.43731,-0.20701 6.90034,-0.0447 1.45612,0.1615 3.39987,0.49228 4.58073,0.77952 13.3759,3.25367 23.41238,14.31716 25.34225,27.93546 0.44841,3.16419 0.38442,7.22694 -0.16335,10.37167 -0.84936,4.87619 -2.84451,9.66839 -5.67641,13.63428 -1.49048,2.08731 -3.69998,4.4974 -5.62589,6.13663 -4.55833,3.87979 -9.89301,6.41505 -15.748,7.48409 -2.42031,0.44191 -5.8246,0.63962 -8.17033,0.4745 z m 3.15688,-11.51584 c 0.026,-7.31735 -0.0173,-8.51447 -0.35586,-9.84622 -0.74307,-2.9227 -2.91828,-5.50185 -5.637357,-6.68424 -1.165742,-0.50692 -13.825241,-5.58687 -14.0335,-5.6313 -0.190181,-0.0406 -0.1905,-0.0387 -0.1905,1.10623 v 1.14688 l 1.502833,0.59052 c 7.096031,2.78832 12.263103,4.89097 12.805834,5.21113 1.73183,1.0216 3.14354,2.80181 3.6671,4.62434 0.28197,0.98154 0.31223,1.86021 0.31223,9.06416 0,3.93999 0.0266,7.19023 0.0591,7.22275 0.0325,0.0325 0.46115,0.0484 0.9525,0.0353 l 0.89336,-0.0239 z m -6.606307,-0.6985 c -0.03269,-7.73089 -0.01397,-7.46997 -0.601844,-8.38897 -0.320074,-0.50036 -0.677738,-0.82838 -1.188205,-1.08973 -0.19169,-0.0981 -3.968028,-1.61532 -8.391861,-3.3715 l -8.043334,-3.19307 -0.02172,-6.20105 c -0.01734,-4.95133 -2.78e-4,-6.19232 0.08467,-6.15775 0.153868,0.0626 8.455483,3.36814 14.034053,5.58803 6.728698,2.67756 7.785988,3.15456 9.101668,4.10623 l 0.67733,0.48993 0.64223,-0.47437 c 0.76835,-0.56753 1.72495,-1.07003 3.37944,-1.77521 1.24403,-0.53024 19.77638,-7.95937 19.85505,-7.95937 0.0235,0 0.0329,2.78538 0.021,6.18973 l -0.0217,6.18973 -8.05103,3.19565 c -4.42807,1.75761 -8.25134,3.30468 -8.49616,3.43793 -0.86566,0.47115 -1.43048,1.33974 -1.62066,2.49229 -0.0423,0.25612 -0.0771,3.48509 -0.0773,7.1755 -3.9e-4,5.35741 0.0211,6.70984 0.10672,6.70984 0.059,0 0.63658,-0.13333 1.28359,-0.29629 6.85944,-1.72761 12.90495,-5.99027 16.8711,-11.89571 2.46258,-3.66668 4.01994,-7.76846 4.64512,-12.23434 0.21735,-1.55261 0.26277,-5.09125 0.0865,-6.73715 -0.62061,-5.79397 -2.90276,-11.13668 -6.66994,-15.61485 -1.36854,-1.62683 -3.50545,-3.58243 -5.37516,-4.91909 -6.15872,-4.4029 -13.83646,-6.13256 -21.531728,-4.85072 -8.087206,1.34713 -15.495208,6.45442 -19.758597,13.62215 -3.41107,5.73478 -4.720934,12.27636 -3.772123,18.83833 1.2392,8.57031 6.310857,16.15628 13.794053,20.63258 1.648297,0.98598 3.957815,2.03796 5.742568,2.61574 0.922888,0.29876 2.940574,0.83016 3.173109,0.83571 0.14615,0.003 0.151418,-0.29408 0.123233,-6.9602 z m 4.240987,-24.57415 c -1.91901,-0.36438 -3.690896,-1.44549 -4.815797,-2.93834 -1.117588,-1.48315 -1.641145,-3.02596 -1.631955,-4.80901 0.01074,-2.08362 0.72886,-3.88752 2.132811,-5.35756 0.784497,-0.82143 1.455421,-1.31071 2.411931,-1.75895 1.17946,-0.55271 1.8467,-0.69575 3.27045,-0.70107 1.42093,-0.005 2.18516,0.15477 3.359,0.70362 0.88332,0.41301 1.34445,0.73271 2.12146,1.47079 1.51758,1.44155 2.29104,3.18938 2.3714,5.35878 0.0669,1.80665 -0.31242,3.17888 -1.28134,4.63506 -1.08131,1.62512 -2.82536,2.84998 -4.71878,3.31406 -0.77929,0.19101 -2.42581,0.23326 -3.21918,0.0826 z m 2.71547,-4.90765 c 0.62521,-0.31682 1.23008,-0.90807 1.50827,-1.47433 0.21069,-0.42885 0.23396,-0.56503 0.23336,-1.36537 -5.7e-4,-0.76359 -0.0289,-0.94609 -0.20102,-1.29371 -0.31697,-0.64027 -0.88261,-1.20678 -1.51655,-1.51886 -0.51152,-0.25182 -0.63569,-0.27776 -1.32976,-0.27776 -0.69377,0 -0.81837,0.026 -1.32865,0.27721 -1.13258,0.55757 -1.78459,1.58536 -1.78459,2.81312 0,0.86349 0.23845,1.46603 0.83528,2.11068 0.71125,0.76823 1.3671,1.03234 2.45058,0.98686 0.53415,-0.0224 0.778,-0.0779 1.13308,-0.25784 z m 4.21719,15.75554 c 0.57385,-0.28846 2.39204,-1.01928 10.45794,-4.2036 l 3.28084,-1.29523 v -1.12954 c 0,-0.87524 -0.025,-1.12953 -0.11101,-1.12953 -0.13126,0 -12.72505,5.04564 -14.05233,5.63 -0.50216,0.22108 -1.14124,0.54948 -1.42019,0.72978 l -0.50718,0.3278 0.25998,0.44504 c 0.143,0.24478 0.3736,0.6652 0.51245,0.93427 l 0.25247,0.48923 0.3574,-0.24523 c 0.19657,-0.13488 0.63291,-0.38373 0.96963,-0.55299 z"
         id="path2" /><path
         style="fill:#000000"
         d="M 101.98317,181.90217 C 93.751818,181.32273 86.182456,177.86531 80.393166,172.0406 72.603658,164.20343 69.188525,153.027 71.259621,142.15 c 1.772707,-9.30992 7.452697,-17.44233 15.652878,-22.41125 4.079655,-2.47207 8.698853,-4.03357 13.631331,-4.60799 1.56181,-0.18188 5.43731,-0.20701 6.90034,-0.0447 1.45612,0.1615 3.39987,0.49228 4.58073,0.77952 13.3759,3.25367 23.41238,14.31716 25.34225,27.93546 0.44841,3.16419 0.38442,7.22694 -0.16335,10.37167 -0.84936,4.87619 -2.84451,9.66839 -5.67641,13.63428 -1.49048,2.08731 -3.69998,4.4974 -5.62589,6.13663 -4.55833,3.87979 -9.89301,6.41505 -15.748,7.48409 -2.42031,0.44191 -5.8246,0.63962 -8.17033,0.4745 z m 3.15688,-11.51584 c 0.026,-7.31735 -0.0173,-8.51447 -0.35586,-9.84622 -0.74307,-2.9227 -2.91828,-5.50185 -5.637357,-6.68424 -1.165742,-0.50692 -13.825241,-5.58687 -14.0335,-5.6313 -0.190181,-0.0406 -0.1905,-0.0387 -0.1905,1.10623 v 1.14688 l 1.502833,0.59052 c 7.096031,2.78832 12.263103,4.89097 12.805834,5.21113 1.73183,1.0216 3.14354,2.80181 3.6671,4.62434 0.28197,0.98154 0.31223,1.86021 0.31223,9.06416 0,3.93999 0.0266,7.19023 0.0591,7.22275 0.0325,0.0325 0.46115,0.0484 0.9525,0.0353 l 0.89336,-0.0239 z m -6.606307,-0.6985 c -0.03269,-7.73089 -0.01397,-7.46997 -0.601844,-8.38897 -0.320074,-0.50036 -0.677738,-0.82838 -1.188205,-1.08973 -0.19169,-0.0981 -3.968028,-1.61532 -8.391861,-3.3715 l -8.043334,-3.19307 -0.02172,-6.20105 c -0.01734,-4.95133 -2.78e-4,-6.19232 0.08467,-6.15775 0.153868,0.0626 8.455483,3.36814 14.034053,5.58803 6.728698,2.67756 7.785988,3.15456 9.101668,4.10623 l 0.67733,0.48993 0.64223,-0.47437 c 0.76835,-0.56753 1.72495,-1.07003 3.37944,-1.77521 1.24403,-0.53024 19.77638,-7.95937 19.85505,-7.95937 0.0235,0 0.0329,2.78538 0.021,6.18973 l -0.0217,6.18973 -8.05103,3.19565 c -4.42807,1.75761 -8.25134,3.30468 -8.49616,3.43793 -0.86566,0.47115 -1.43048,1.33974 -1.62066,2.49229 -0.0423,0.25612 -0.0771,3.48509 -0.0773,7.1755 -3.9e-4,5.35741 0.0211,6.70984 0.10672,6.70984 0.059,0 0.63658,-0.13333 1.28359,-0.29629 6.85944,-1.72761 12.90495,-5.99027 16.8711,-11.89571 2.46258,-3.66668 4.01994,-7.76846 4.64512,-12.23434 0.21735,-1.55261 0.26277,-5.09125 0.0865,-6.73715 -0.62061,-5.79397 -2.90276,-11.13668 -6.66994,-15.61485 -1.36854,-1.62683 -3.50545,-3.58243 -5.37516,-4.91909 -6.15872,-4.4029 -13.83646,-6.13256 -21.531728,-4.85072 -8.087206,1.34713 -15.495208,6.45442 -19.758597,13.62215 -3.41107,5.73478 -4.720934,12.27636 -3.772123,18.83833 1.2392,8.57031 6.310857,16.15628 13.794053,20.63258 1.648297,0.98598 3.957815,2.03796 5.742568,2.61574 0.922888,0.29876 2.940574,0.83016 3.173109,0.83571 0.14615,0.003 0.151418,-0.29408 0.123233,-6.9602 z m 4.240987,-24.57415 c -1.91901,-0.36438 -3.690896,-1.44549 -4.815797,-2.93834 -1.117588,-1.48315 -1.641145,-3.02596 -1.631955,-4.80901 0.01074,-2.08362 0.72886,-3.88752 2.132811,-5.35756 0.784497,-0.82143 1.455421,-1.31071 2.411931,-1.75895 1.17946,-0.55271 1.8467,-0.69575 3.27045,-0.70107 1.42093,-0.005 2.18516,0.15477 3.359,0.70362 0.88332,0.41301 1.34445,0.73271 2.12146,1.47079 1.51758,1.44155 2.29104,3.18938 2.3714,5.35878 0.0669,1.80665 -0.31242,3.17888 -1.28134,4.63506 -1.08131,1.62512 -2.82536,2.84998 -4.71878,3.31406 -0.77929,0.19101 -2.42581,0.23326 -3.21918,0.0826 z m 2.71547,-4.90765 c 0.62521,-0.31682 1.23008,-0.90807 1.50827,-1.47433 0.21069,-0.42885 0.23396,-0.56503 0.23336,-1.36537 -5.7e-4,-0.76359 -0.0289,-0.94609 -0.20102,-1.29371 -0.31697,-0.64027 -0.88261,-1.20678 -1.51655,-1.51886 -0.51152,-0.25182 -0.63569,-0.27776 -1.32976,-0.27776 -0.69377,0 -0.81837,0.026 -1.32865,0.27721 -1.13258,0.55757 -1.78459,1.58536 -1.78459,2.81312 0,0.86349 0.23845,1.46603 0.83528,2.11068 0.71125,0.76823 1.3671,1.03234 2.45058,0.98686 0.53415,-0.0224 0.778,-0.0779 1.13308,-0.25784 z m 4.21719,15.75554 c 0.57385,-0.28846 2.39204,-1.01928 10.45794,-4.2036 l 3.28084,-1.29523 v -1.12954 c 0,-0.87524 -0.025,-1.12953 -0.11101,-1.12953 -0.13126,0 -12.72505,5.04564 -14.05233,5.63 -0.50216,0.22108 -1.14124,0.54948 -1.42019,0.72978 l -0.50718,0.3278 0.25998,0.44504 c 0.143,0.24478 0.3736,0.6652 0.51245,0.93427 l 0.25247,0.48923 0.3574,-0.24523 c 0.19657,-0.13488 0.63291,-0.38373 0.96963,-0.55299 z"
         id="path1" /></g></g></svg>
